PathFileType	4	(X/Y/Z)	D:\TRACE\v60_Jaco2_6-2-23\BothDRS_Motion3_4-v60.trc
DataRate	CameraRate	NumFrames	NumMarkers	Units	OrigDataRate	OrigDataStartFrame	OrigNumFrames
100.00	100.00	      14	9	mm	100.00	1	      7000
Frame#	Time	front left toe			Front right toe			aft left toe			aft right toe			Arm			FL body			FR body			AL Body			AR Body			
		X1	Y1	Z1	X2	Y2	Z2	X3	Y3	Z3	X4	Y4	Z4	X5	Y5	Z5	X6	Y6	Z6	X7	Y7	Z7	X8	Y8	Z8	X9	Y9	Z9	

1	0.000	-290.03070	51.61864	-134.35840	155.75362	59.03030	-185.10408	-163.98621	-57.85633	468.34332	215.63712	-52.55976	437.40369	-38.86913	1232.60498	-93.46821	-158.81467	628.23444	-293.42496	-1.89877	626.35498	-315.41144	-28.59085	464.52185	627.84039	122.00807	453.61926	604.94330	
2	0.010	-290.02966	51.63552	-134.35901	155.66336	59.00212	-185.16084	-164.00626	-57.81293	468.33542	215.64618	-52.54263	437.40262	-38.83910	1232.59961	-93.48217	-158.84866	628.20355	-293.43381	-1.89958	626.32379	-315.38788	-28.53852	464.50073	627.81152	122.02095	453.63214	604.92896	
3	0.020	-290.04889	51.64224	-134.33759	155.63867	59.01366	-185.19101	-163.96553	-57.83333	468.30557	215.60066	-52.56145	437.36472	-38.93097	1232.62109	-93.45868	-158.84869	628.22644	-293.45309	-1.92055	626.32312	-315.39636	-28.29160	464.52667	627.64685	122.01483	453.56262	605.00122	
4	0.030	-290.03278	51.63240	-134.35440	155.78528	58.96103	-185.15633	-163.97644	-57.86851	468.33408	215.62941	-52.62183	437.44266	-38.92624	1232.57959	-93.47489	-158.88519	628.21747	-293.44446	-1.92766	626.36841	-315.42310	-28.22918	464.51678	627.62915	122.01187	453.58417	604.96179	
5	0.040	-290.00146	51.61129	-134.35664	155.81094	58.98302	-185.09891	-163.96515	-57.88860	468.35617	215.63753	-52.64044	437.47250	-38.96386	1232.59534	-93.47308	-158.86147	628.24500	-293.44006	-1.94514	626.40021	-315.43683	-28.26980	464.48929	627.65076	121.99759	453.59338	604.95691	
6	0.050	-290.00668	51.60339	-134.32751	155.77332	58.98872	-185.09399	-163.97505	-57.89835	468.40710	215.63394	-52.67452	437.42450	-38.94062	1232.58838	-93.47209	-158.84987	628.21545	-293.45096	-1.95082	626.35712	-315.40781	-28.28906	464.49225	627.63873	121.99695	453.57346	604.96979	
7	0.060	-290.01605	51.63584	-134.35138	155.74495	58.95054	-185.16299	-163.98100	-57.87898	468.36285	215.63756	-52.64824	437.46564	-38.94985	1232.57886	-93.48133	-158.85846	628.21716	-293.43753	-1.94013	626.39417	-315.41199	-28.28566	464.50327	627.63843	122.00382	453.57599	604.95593	
8	0.070	-290.02725	51.62767	-134.34718	155.72762	58.89707	-185.17934	-163.94064	-57.90786	468.38901	215.67406	-52.65284	437.45898	-38.90902	1232.60388	-93.47546	-158.85887	628.22571	-293.42685	-1.91329	626.36945	-315.40930	-28.23256	464.51324	627.64410	121.99547	453.60892	604.95441	
9	0.080	-289.99622	51.58411	-134.33478	155.80637	59.02615	-185.13034	-163.89537	-57.94167	468.39725	215.63754	-52.65135	437.47653	-38.92740	1232.57251	-93.45846	-158.85487	628.22644	-293.45786	-1.93649	626.37561	-315.41940	-28.51618	464.48007	627.84955	121.99824	453.58203	604.96576	
10	0.090	-289.97668	51.57098	-134.35664	155.55499	58.84648	-185.25989	-163.85693	-57.95081	468.37570	215.69130	-52.67213	437.52036	-38.92559	1232.57068	-93.46906	-158.82047	628.20544	-293.44998	-1.96010	626.35492	-315.37540	-28.45575	464.46298	627.83533	121.97500	453.57068	604.97247	
11	0.100	-289.99893	51.59122	-134.34171	155.75343	58.99821	-185.11528	-163.95883	-57.94466	468.38809	215.65262	-52.66691	437.54703	-38.94616	1232.56018	-93.46029	-158.85669	628.22424	-293.45648	-1.90146	626.34302	-315.36234	-28.26997	464.49149	627.64331	122.01820	453.55957	604.97430	
12	0.110	-289.99945	51.59654	-134.34514	155.80356	59.02775	-185.14061	-163.87196	-57.95057	468.36710	215.70070	-52.64554	437.52136	-38.94131	1232.57507	-93.46133	-158.86781	628.23401	-293.42014	-1.90086	626.32220	-315.39581	-28.49658	464.49664	627.87476	122.00268	453.57632	604.95685	
13	0.120	-290.00708	51.61054	-134.31879	155.79109	58.99247	-185.09604	-163.99394	-57.87672	468.34988	215.64633	-52.63641	437.48553	-38.97920	1232.60486	-93.47556	-158.87218	628.21820	-293.42596	-1.91193	626.35730	-315.37079	-28.49707	464.50653	627.82227	122.01494	453.55322	604.98547	
14	0.130	-290.03995	51.64240	-134.35864	155.82533	59.02823	-185.11073	-163.98238	-57.83990	468.33572	215.66920	-52.61178	437.46317	-38.99633	1232.59741	-93.48243	-158.81969	628.20477	-293.45349	-1.90430	626.36511	-315.41885	-28.23815	464.49973	627.59235	122.01925	453.60733	604.94379	
